<?xml version="1.0" standalone="no"?>
<!DOCTYPE svg PUBLIC "-//W3C//DTD SVG 1.1//EN" "http://www.w3.org/Graphics/SVG/1.1/DTD/svg11.dtd" >
<svg xmlns="http://www.w3.org/2000/svg" xmlns:xlink="http://www.w3.org/1999/xlink" version="1.1" viewBox="-10 0 2458 2816">
  <g transform="matrix(1 0 0 -1 0 2252)">
   <path fill="currentColor"
d="M836 -608c-343 0 -532 147 -628 308l188 132c63 -85 161 -232 440 -232c248 0 428 116 428 372v312h-20c-52 -84 -148 -260 -448 -260c-372 0 -652 272 -652 752c0 472 268 780 656 780c300 0 396 -184 448 -264h24v244h228v-1580c0 -396 -296 -564 -664 -564zM828 236
c284 0 440 204 440 544c0 332 -152 564 -440 564c-300 0 -448 -252 -448 -564c0 -320 152 -544 448 -544z" />
  </g>

</svg>
