<?xml version="1.0" encoding="UTF-8" standalone="no"?>
<!DOCTYPE svg PUBLIC "-//W3C//DTD SVG 1.1//EN" "http://www.w3.org/Graphics/SVG/1.1/DTD/svg11.dtd">
<svg width="100%" height="100%" viewBox="0 0 1842 2816" version="1.1" xmlns="http://www.w3.org/2000/svg" xmlns:xlink="http://www.w3.org/1999/xlink" xml:space="preserve" xmlns:serif="http://www.serif.com/" style="fill-rule:evenodd;clip-rule:evenodd;stroke-linejoin:round;stroke-miterlimit:2;">
    <g transform="matrix(1,0,0,1,10,180)">
        <path d="M248,2252L248,204L964,204C1392,204 1592,448 1592,748C1592,1012 1436,1128 1260,1176L1260,1196C1448,1208 1672,1384 1672,1708C1672,2016 1472,2252 988,2252L248,2252ZM496,2032L988,2032C1312,2032 1436,1888 1436,1708C1436,1500 1268,1320 1000,1320L496,1320L496,2032ZM496,1104L956,1104C1180,1104 1356,964 1356,748C1356,568 1236,424 964,424L496,424L496,1104Z" style="fill-rule:nonzero;"/>
    </g>
</svg>
