<?xml version="1.0" encoding="UTF-8" standalone="no"?>
<!DOCTYPE svg PUBLIC "-//W3C//DTD SVG 1.1//EN" "http://www.w3.org/Graphics/SVG/1.1/DTD/svg11.dtd">
<svg width="100%" height="100%" viewBox="0 0 1810 2816" version="1.1" xmlns="http://www.w3.org/2000/svg" xmlns:xlink="http://www.w3.org/1999/xlink" xml:space="preserve" xmlns:serif="http://www.serif.com/" style="fill-rule:evenodd;clip-rule:evenodd;stroke-linejoin:round;stroke-miterlimit:2;">
    <g transform="matrix(1,0,0,1,10,180)">
        <path d="M248,2252L248,204L940,204C1420,204 1636,470 1636,832C1636,1104 1514,1317 1253,1406L1716,2252L1428,2252L996,1451C979,1452 962,1452 944,1452L496,1452L496,2252L248,2252ZM496,1228L936,1228C1264,1228 1392,1078 1392,832C1392,586 1264,424 932,424L496,424L496,1228Z" style="fill-rule:nonzero;"/>
    </g>
</svg>
