<?xml version="1.0" encoding="UTF-8" standalone="no"?>
<!DOCTYPE svg PUBLIC "-//W3C//DTD SVG 1.1//EN" "http://www.w3.org/Graphics/SVG/1.1/DTD/svg11.dtd">
<svg width="100%" height="100%" viewBox="0 0 1786 2816" version="1.1" xmlns="http://www.w3.org/2000/svg" xmlns:xlink="http://www.w3.org/1999/xlink" xml:space="preserve" xmlns:serif="http://www.serif.com/" style="fill-rule:evenodd;clip-rule:evenodd;stroke-linejoin:round;stroke-miterlimit:2;">
    <g transform="matrix(1,0,0,1,5,180)">
        <path d="M980,2252L1073,1684L553,1684L460,2252L260,2252L353,1684L48,1684L80,1484L386,1484L470,972L168,972L200,772L503,772L596,204L796,204L703,772L1223,772L1316,204L1516,204L1423,772L1728,772L1696,972L1390,972L1306,1484L1608,1484L1576,1684L1273,1684L1180,2252L980,2252ZM586,1484L1106,1484L1190,972L670,972L586,1484Z" style="fill-rule:nonzero;"/>
    </g>
</svg>
