<?xml version="1.0" encoding="UTF-8" standalone="no"?>
<!DOCTYPE svg PUBLIC "-//W3C//DTD SVG 1.1//EN" "http://www.w3.org/Graphics/SVG/1.1/DTD/svg11.dtd">
<svg width="100%" height="100%" viewBox="0 0 786 2816" version="1.1" xmlns="http://www.w3.org/2000/svg" xmlns:xlink="http://www.w3.org/1999/xlink" xml:space="preserve" xmlns:serif="http://www.serif.com/" style="fill-rule:evenodd;clip-rule:evenodd;stroke-linejoin:round;stroke-miterlimit:2;">
    <g transform="matrix(1,0,0,1,5,-110)">
        <path d="M388,2268C289,2268 208,2187 208,2088C208,1989 289,1908 388,1908C487,1908 568,1989 568,2088C568,2187 487,2268 388,2268ZM388,1128C289,1128 208,1047 208,948C208,849 289,768 388,768C487,768 568,849 568,948C568,1047 487,1128 388,1128Z" style="fill-rule:nonzero;"/>
    </g>
</svg>
