<?xml version="1.0" encoding="UTF-8" standalone="no"?>
<!DOCTYPE svg PUBLIC "-//W3C//DTD SVG 1.1//EN" "http://www.w3.org/Graphics/SVG/1.1/DTD/svg11.dtd">
<svg width="100%" height="100%" viewBox="0 0 2646 2816" version="1.1" xmlns="http://www.w3.org/2000/svg" xmlns:xlink="http://www.w3.org/1999/xlink" xml:space="preserve" xmlns:serif="http://www.serif.com/" style="fill-rule:evenodd;clip-rule:evenodd;stroke-linejoin:round;stroke-miterlimit:2;">
    <g transform="matrix(1,0,0,1,5,-128)">
        <path d="M1396,2792C580,2792 136,2336 136,1528C136,748 596,280 1368,280C2116,280 2500,820 2500,1368C2500,1756 2460,2212 2036,2212C1896,2212 1680,2152 1656,1980L1644,1980C1596,2096 1476,2208 1248,2200C900,2188 720,1896 720,1516C720,1156 948,908 1248,876C1448,856 1604,932 1632,1020L1644,1020L1644,908L1856,908L1856,1812C1856,1924 1920,2024 2040,2024C2244,2024 2292,1820 2292,1364C2292,916 1992,468 1356,468C728,468 356,868 356,1536C356,2216 720,2600 1404,2600C1624,2600 1856,2520 1928,2496L1984,2680C1860,2732 1600,2792 1396,2792ZM1280,1996C1548,1996 1656,1836 1656,1504C1656,1168 1528,1072 1288,1072C1060,1072 928,1272 928,1504C928,1760 1020,1996 1280,1996Z" style="fill-rule:nonzero;"/>
    </g>
</svg>
