<?xml version="1.0" encoding="UTF-8" standalone="no"?>
<!DOCTYPE svg PUBLIC "-//W3C//DTD SVG 1.1//EN" "http://www.w3.org/Graphics/SVG/1.1/DTD/svg11.dtd">
<svg width="100%" height="100%" viewBox="0 0 1030 2816" version="1.1" xmlns="http://www.w3.org/2000/svg" xmlns:xlink="http://www.w3.org/1999/xlink" xml:space="preserve" xmlns:serif="http://www.serif.com/" style="fill-rule:evenodd;clip-rule:evenodd;stroke-linejoin:round;stroke-miterlimit:2;">
    <g transform="matrix(1,0,0,1,10,20)">
        <path d="M96,108C488,108 616,276 616,644L616,964C616,1183 693,1268 916,1268L916,1508C693,1508 616,1593 616,1812L616,2132C616,2500 488,2668 96,2668L96,2472C328,2472 400,2366 400,2132L400,1732C400,1569 451,1448 680,1403L680,1373C451,1328 400,1207 400,1044L400,644C400,410 328,304 96,304L96,108Z" style="fill-rule:nonzero;"/>
    </g>
</svg>
