<?xml version="1.0" encoding="UTF-8" standalone="no"?>
<!DOCTYPE svg PUBLIC "-//W3C//DTD SVG 1.1//EN" "http://www.w3.org/Graphics/SVG/1.1/DTD/svg11.dtd">
<svg width="100%" height="100%" viewBox="0 0 1866 2816" version="1.1" xmlns="http://www.w3.org/2000/svg" xmlns:xlink="http://www.w3.org/1999/xlink" xml:space="preserve" xmlns:serif="http://www.serif.com/" style="fill-rule:evenodd;clip-rule:evenodd;stroke-linejoin:round;stroke-miterlimit:2;">
    <g transform="matrix(1,0,0,1,5,-34)">
        <path d="M232,1644C226,1312 424,1184 628,1184C764,1184 862,1241 1008,1368C1106,1453 1153,1484 1224,1484C1338,1484 1411,1399 1408,1240L1624,1240C1630,1572 1432,1700 1228,1700C1092,1700 994,1643 848,1516C750,1431 703,1400 632,1400C524,1400 445,1470 448,1644L232,1644Z" style="fill-rule:nonzero;"/>
    </g>
</svg>
