<?xml version="1.0" standalone="no"?>
<!DOCTYPE svg PUBLIC "-//W3C//DTD SVG 1.1//EN" "http://www.w3.org/Graphics/SVG/1.1/DTD/svg11.dtd" >
<svg xmlns="http://www.w3.org/2000/svg" xmlns:xlink="http://www.w3.org/1999/xlink" version="1.1" viewBox="-10 0 2298 2816">
  <g transform="matrix(1 0 0 -1 0 2252)">
   <path fill="currentColor"
d="M1256 384v108c0 224 144 412 400 412c260 0 396 -188 396 -412v-108c0 -224 -140 -412 -396 -412c-260 0 -400 188 -400 412zM236 1556v108c0 224 144 412 400 412c260 0 396 -188 396 -412v-108c0 -224 -140 -412 -396 -412c-260 0 -400 188 -400 412zM312 0l1408 2048
h228l-1408 -2048h-228zM1460 492v-108c0 -124 52 -240 196 -240c140 0 192 116 192 240v108c0 124 -48 240 -192 240c-140 0 -196 -116 -196 -240zM440 1664v-108c0 -124 52 -240 196 -240c140 0 192 116 192 240v108c0 124 -48 240 -192 240c-140 0 -196 -116 -196 -240z
" />
  </g>

</svg>
