<?xml version="1.0" standalone="no"?>
<!DOCTYPE svg PUBLIC "-//W3C//DTD SVG 1.1//EN" "http://www.w3.org/Graphics/SVG/1.1/DTD/svg11.dtd" >
<svg xmlns="http://www.w3.org/2000/svg" xmlns:xlink="http://www.w3.org/1999/xlink" version="1.1" viewBox="-10 0 2646 2816">
  <g transform="matrix(1 0 0 -1 0 2252)">
   <path fill="currentColor"
d="M1396 -540c-816 0 -1260 456 -1260 1264c0 780 460 1248 1232 1248c748 0 1132 -540 1132 -1088c0 -388 -40 -844 -464 -844c-140 0 -356 60 -380 232h-12c-48 -116 -168 -228 -396 -220c-348 12 -528 304 -528 684c0 360 228 608 528 640c200 20 356 -56 384 -144h12
v112h212v-904c0 -112 64 -212 184 -212c204 0 252 204 252 660c0 448 -300 896 -936 896c-628 0 -1000 -400 -1000 -1068c0 -680 364 -1064 1048 -1064c220 0 452 80 524 104l56 -184c-124 -52 -384 -112 -588 -112zM1280 256c268 0 376 160 376 492
c0 336 -128 432 -368 432c-228 0 -360 -200 -360 -432c0 -256 92 -492 352 -492z" />
  </g>

</svg>
