<?xml version="1.0" standalone="no"?>
<!DOCTYPE svg PUBLIC "-//W3C//DTD SVG 1.1//EN" "http://www.w3.org/Graphics/SVG/1.1/DTD/svg11.dtd" >
<svg xmlns="http://www.w3.org/2000/svg" xmlns:xlink="http://www.w3.org/1999/xlink" version="1.1" viewBox="-10 0 1758 2816">
  <g transform="matrix(1 0 0 -1 0 2252)">
   <path fill="currentColor"
d="M796 -32c-384 0 -652 308 -652 796c0 484 268 792 656 792c300 0 392 -184 444 -264h20v756h236v-2048h-228v236h-28c-52 -84 -152 -268 -448 -268zM828 180c284 0 440 240 440 588c0 344 -152 576 -440 576c-300 0 -448 -252 -448 -576c0 -328 152 -588 448 -588z" />
  </g>

</svg>
