<?xml version="1.0" standalone="no"?>
<!DOCTYPE svg PUBLIC "-//W3C//DTD SVG 1.1//EN" "http://www.w3.org/Graphics/SVG/1.1/DTD/svg11.dtd" >
<svg xmlns="http://www.w3.org/2000/svg" xmlns:xlink="http://www.w3.org/1999/xlink" version="1.1" viewBox="-10 0 2830 2816">
  <g transform="matrix(1 0 0 -1 0 2252)">
   <path fill="currentColor"
d="M774 -46c-239 0 -434 195 -434 434c0 240 195 435 434 436h232v402h-232c-239 -1 -434 194 -434 434c0 239 195 434 434 434c240 0 435 -195 436 -434v-230h402v230c-1 239 194 434 434 434c239 0 434 -195 434 -434c0 -240 -195 -435 -434 -434h-230v-402h230
c239 -1 434 -196 434 -436c0 -239 -195 -434 -434 -434c-240 0 -435 195 -434 434v232h-402v-232c-1 -239 -196 -434 -436 -434zM774 158c128 0 231 103 232 230v232h-232c-127 -1 -230 -104 -230 -232c0 -127 103 -230 230 -230zM774 1430h232v230
c-1 127 -104 230 -232 230c-127 0 -230 -103 -230 -230c0 -128 103 -231 230 -230zM2046 158c127 0 230 103 230 230c0 128 -103 231 -230 232h-230v-232c-1 -127 102 -230 230 -230zM1816 1430h230c127 -1 230 102 230 230c0 127 -103 230 -230 230
c-128 0 -231 -103 -230 -230v-230zM1210 824h402v402h-402v-402z" />
  </g>

</svg>
