<?xml version="1.0" encoding="UTF-8" standalone="no"?>
<!DOCTYPE svg PUBLIC "-//W3C//DTD SVG 1.1//EN" "http://www.w3.org/Graphics/SVG/1.1/DTD/svg11.dtd">
<svg width="100%" height="100%" viewBox="0 0 2830 2816" version="1.1" xmlns="http://www.w3.org/2000/svg" xmlns:xlink="http://www.w3.org/1999/xlink" xml:space="preserve" xmlns:serif="http://www.serif.com/" style="fill-rule:evenodd;clip-rule:evenodd;stroke-linejoin:round;stroke-miterlimit:2;">
    <g transform="matrix(1,0,0,1,5,180)">
        <path d="M774,2298C535,2298 340,2103 340,1864C340,1624 535,1429 774,1428L1006,1428L1006,1026L774,1026C535,1027 340,832 340,592C340,353 535,158 774,158C1014,158 1209,353 1210,592L1210,822L1612,822L1612,592C1611,353 1806,158 2046,158C2285,158 2480,353 2480,592C2480,832 2285,1027 2046,1026L1816,1026L1816,1428L2046,1428C2285,1429 2480,1624 2480,1864C2480,2103 2285,2298 2046,2298C1806,2298 1611,2103 1612,1864L1612,1632L1210,1632L1210,1864C1209,2103 1014,2298 774,2298ZM774,2094C902,2094 1005,1991 1006,1864L1006,1632L774,1632C647,1633 544,1736 544,1864C544,1991 647,2094 774,2094ZM774,822L1006,822L1006,592C1005,465 902,362 774,362C647,362 544,465 544,592C544,720 647,823 774,822ZM2046,2094C2173,2094 2276,1991 2276,1864C2276,1736 2173,1633 2046,1632L1816,1632L1816,1864C1815,1991 1918,2094 2046,2094ZM1816,822L2046,822C2173,823 2276,720 2276,592C2276,465 2173,362 2046,362C1918,362 1815,465 1816,592L1816,822ZM1210,1428L1612,1428L1612,1026L1210,1026L1210,1428Z" style="fill-rule:nonzero;"/>
    </g>
</svg>
