<?xml version="1.0" encoding="UTF-8" standalone="no"?>
<!DOCTYPE svg PUBLIC "-//W3C//DTD SVG 1.1//EN" "http://www.w3.org/Graphics/SVG/1.1/DTD/svg11.dtd">
<svg width="100%" height="100%" viewBox="0 0 1818 2816" version="1.1" xmlns="http://www.w3.org/2000/svg" xmlns:xlink="http://www.w3.org/1999/xlink" xml:space="preserve" xmlns:serif="http://www.serif.com/" style="fill-rule:evenodd;clip-rule:evenodd;stroke-linejoin:round;stroke-miterlimit:2;">
    <g transform="matrix(1,0,0,-1,51,2446)">
        <path d="M212,0L212,180L888,920C1125,1179 1236,1319 1236,1508C1236,1724 1066,1860 844,1860C607,1860 456,1705 456,1472L220,1472C220,1832 493,2076 852,2076C1212,2076 1468,1824 1468,1508C1468,1281 1364,1105 1012,728L552,236L552,220L1504,220L1504,0L212,0Z" style="fill-rule:nonzero;"/>
    </g>
</svg>
