<?xml version="1.0" standalone="no"?>
<!DOCTYPE svg PUBLIC "-//W3C//DTD SVG 1.1//EN" "http://www.w3.org/Graphics/SVG/1.1/DTD/svg11.dtd" >
<svg xmlns="http://www.w3.org/2000/svg" xmlns:xlink="http://www.w3.org/1999/xlink" version="1.1" viewBox="-10 0 1810 2816">
  <g transform="matrix(1 0 0 -1 0 2252)">
   <path fill="currentColor"
d="M796 -28c-404 0 -652 240 -652 572c0 248 165 402 404 568c-141 170 -240 310 -240 492c0 276 196 464 496 464c308 0 496 -200 496 -428c0 -196 -104 -332 -272 -456l-150 -112l445 -543c53 103 85 227 85 367h228c0 -286 -86 -452 -163 -551l283 -345h-284l-145 174
c-133 -136 -343 -202 -531 -202zM1186 345l-490 591l-76 -56c-184 -136 -236 -280 -236 -336c0 -192 160 -364 404 -364c142 0 285 59 398 165zM733 1248l135 100c116 76 192 152 192 292c0 104 -100 224 -248 224c-156 0 -264 -136 -264 -264c0 -114 85 -230 185 -352z" />
  </g>

</svg>
