<?xml version="1.0" standalone="no"?>
<!DOCTYPE svg PUBLIC "-//W3C//DTD SVG 1.1//EN" "http://www.w3.org/Graphics/SVG/1.1/DTD/svg11.dtd" >
<svg xmlns="http://www.w3.org/2000/svg" xmlns:xlink="http://www.w3.org/1999/xlink" version="1.1" viewBox="-10 0 1722 2816">
   <path fill="currentColor"
d="M852 2280c-352 0 -621 -228 -636 -540h240c19 185 186 320 396 320c252 0 436 -193 436 -456c0 -268 -191 -466 -452 -468c-126 -1 -271 43 -356 104l-232 -28l124 -1008h1064v220h-856l-72 604h12c84 -67 218 -116 356 -116c376 0 652 291 652 688
c0 392 -286 680 -676 680z" />
</svg>
