<?xml version="1.0" standalone="no"?>
<!DOCTYPE svg PUBLIC "-//W3C//DTD SVG 1.1//EN" "http://www.w3.org/Graphics/SVG/1.1/DTD/svg11.dtd" >
<svg xmlns="http://www.w3.org/2000/svg" xmlns:xlink="http://www.w3.org/1999/xlink" version="1.1" viewBox="-10 0 1766 2816">
   <path fill="currentColor"
d="M892 2280c-336 -4 -712 -215 -712 -972c0 -724 283 -1132 744 -1132c344 0 586 222 636 540h-244c-46 -184 -176 -320 -392 -320c-317 0 -511 289 -512 788h16c112 -169 293 -272 504 -272c351 0 644 284 644 680c0 381 -270 693 -684 688zM892 2060
c251 0 444 -208 444 -468c0 -254 -185 -460 -436 -460c-254 0 -451 219 -452 464s187 464 444 464z" />
</svg>
