<?xml version="1.0" standalone="no"?>
<!DOCTYPE svg PUBLIC "-//W3C//DTD SVG 1.1//EN" "http://www.w3.org/Graphics/SVG/1.1/DTD/svg11.dtd" >
<svg xmlns="http://www.w3.org/2000/svg" xmlns:xlink="http://www.w3.org/1999/xlink" version="1.1" viewBox="-10 0 1438 2816">
  <g transform="matrix(1 0 0 -1 0 2252)">
   <path fill="currentColor"
d="M524 576v12c3 381 120 497 316 616c117 71 208 185 208 344c0 196 -152 320 -340 320c-164 0 -329 -96 -344 -332h-252c15 340 272 540 596 540c352 0 580 -228 580 -540c0 -221 -104 -375 -280 -482c-176 -110 -240 -218 -244 -466v-12h-240zM652 -16
c-99 0 -180 81 -180 180s81 180 180 180s180 -81 180 -180s-81 -180 -180 -180z" />
  </g>

</svg>
