<?xml version="1.0" standalone="no"?>
<!DOCTYPE svg PUBLIC "-//W3C//DTD SVG 1.1//EN" "http://www.w3.org/Graphics/SVG/1.1/DTD/svg11.dtd" >
<svg xmlns="http://www.w3.org/2000/svg" xmlns:xlink="http://www.w3.org/1999/xlink" version="1.1" viewBox="-10 0 2154 2816">
   <path fill="currentColor"
d="M1976 1228c0 384 -133 682 -351 861l267 355h-272l-179 -240c-111 50 -235 76 -369 76c-524 0 -904 -404 -904 -1052s380 -1052 904 -1052s904 404 904 1052zM992 1612h272l218 287c156 -136 254 -362 254 -671c0 -532 -292 -820 -664 -820s-664 288 -664 820
s292 820 664 820c79 0 154 -13 224 -38z" />
</svg>
