<?xml version="1.0" standalone="no"?>
<!DOCTYPE svg PUBLIC "-//W3C//DTD SVG 1.1//EN" "http://www.w3.org/Graphics/SVG/1.1/DTD/svg11.dtd" >
<svg xmlns="http://www.w3.org/2000/svg" xmlns:xlink="http://www.w3.org/1999/xlink" version="1.1" viewBox="-10 0 1598 2816">
   <path fill="currentColor"
d="M668 2288c-292 0 -524 -172 -524 -472c0 -352 311 -415 596 -452c280 -36 396 -26 396 -140v-8c0 -197 -107 -312 -324 -312c-225 0 -348 120 -400 232l-224 -80c120 -280 384 -360 616 -360c196 0 568 56 568 544v1012h-236v-208h-12c-48 100 -188 244 -456 244z
M704 2076c280 0 432 -188 432 -380v-216c-40 48 -308 76 -408 88c-184 24 -348 80 -348 260c0 164 136 248 324 248z" />
</svg>
