<?xml version="1.0" standalone="no"?>
<!DOCTYPE svg PUBLIC "-//W3C//DTD SVG 1.1//EN" "http://www.w3.org/Graphics/SVG/1.1/DTD/svg11.dtd" >
<svg xmlns="http://www.w3.org/2000/svg" xmlns:xlink="http://www.w3.org/1999/xlink" version="1.1" viewBox="-10 0 2458 2816">
  <g transform="matrix(1 0 0 -1 0 2252)">
   <path fill="currentColor"
d="M216 0v1536h228v-240h20c64 164 212 260 412 260c202 0 336 -96 412 -260h16c79 159 240 260 460 260c274 0 468 -167 468 -528v-1028h-236v1028c0 227 -144 316 -312 316c-216 0 -340 -146 -340 -344v-1000h-240v1052c0 175 -125 292 -304 292
c-184 0 -348 -159 -348 -384v-960h-236z" />
  </g>

</svg>
