<?xml version="1.0" standalone="no"?>
<!DOCTYPE svg PUBLIC "-//W3C//DTD SVG 1.1//EN" "http://www.w3.org/Graphics/SVG/1.1/DTD/svg11.dtd" >
<svg xmlns="http://www.w3.org/2000/svg" xmlns:xlink="http://www.w3.org/1999/xlink" version="1.1" viewBox="-10 0 1482 2816">
   <path fill="currentColor"
d="M1304 1060l-212 60c-41 -106 -126 -220 -332 -220c-188 0 -328 96 -328 228c0 118 82 179 264 224l228 56c274 67 408 202 408 416c0 265 -243 460 -600 460c-314 0 -529 -139 -584 -400l224 -56c42 165 163 248 356 248c220 0 360 -108 360 -240
c0 -106 -73 -180 -228 -216l-256 -60c-282 -66 -408 -208 -408 -420c0 -260 240 -444 564 -444c304 0 470 146 544 364z" />
</svg>
