<?xml version="1.0" standalone="no"?>
<!DOCTYPE svg PUBLIC "-//W3C//DTD SVG 1.1//EN" "http://www.w3.org/Graphics/SVG/1.1/DTD/svg11.dtd" >
<svg xmlns="http://www.w3.org/2000/svg" xmlns:xlink="http://www.w3.org/1999/xlink" version="1.1" viewBox="-10 0 2250 2816">
  <g transform="matrix(1 0 0 -1 0 2252)">
   <path fill="currentColor"
d="M990 748c-184 0 -332 104 -332 304s156 284 384 308c192 20 256 24 256 96v16c0 108 -72 172 -192 172c-112 0 -192 -56 -216 -136l-200 24c44 164 196 272 420 272c212 0 404 -104 404 -336v-700h-204v156h-8c-48 -96 -152 -176 -312 -176zM274 1080l846 -846l846 846
l134 -132l-980 -980l-980 980zM1046 900c148 0 256 108 256 252v124c-32 -24 -152 -48 -224 -56c-156 -20 -216 -72 -216 -164c0 -96 80 -156 184 -156z" />
  </g>

</svg>
