<?xml version="1.0" standalone="no"?>
<!DOCTYPE svg PUBLIC "-//W3C//DTD SVG 1.1//EN" "http://www.w3.org/Graphics/SVG/1.1/DTD/svg11.dtd" >
<svg xmlns="http://www.w3.org/2000/svg" xmlns:xlink="http://www.w3.org/1999/xlink" version="1.1" viewBox="-10 0 2250 2816">
   <path fill="currentColor"
d="M990 1504c-184 0 -332 -104 -332 -304s156 -284 384 -308c192 -20 256 -24 256 -96v-16c0 -108 -72 -172 -192 -172c-112 0 -192 56 -216 136l-200 -24c44 -164 196 -272 420 -272c212 0 404 104 404 336v700h-204v-156h-8c-48 96 -152 176 -312 176zM274 1172l846 846
l846 -846l134 132l-980 980l-980 -980zM1046 1352c148 0 256 -108 256 -252v-124c-32 24 -152 48 -224 56c-156 20 -216 72 -216 164c0 96 80 156 184 156z" />
</svg>
