<?xml version="1.0" encoding="UTF-8" standalone="no"?>
<!DOCTYPE svg PUBLIC "-//W3C//DTD SVG 1.1//EN" "http://www.w3.org/Graphics/SVG/1.1/DTD/svg11.dtd">
<svg width="100%" height="100%" viewBox="0 0 2890 2816" version="1.1" xmlns="http://www.w3.org/2000/svg" xmlns:xlink="http://www.w3.org/1999/xlink" xml:space="preserve" xmlns:serif="http://www.serif.com/" style="fill-rule:evenodd;clip-rule:evenodd;stroke-linejoin:round;stroke-miterlimit:2;">
    <g transform="matrix(1,0,0,1,5,46)">
        <path d="M864,1832L864,1228L256,1228L1440,44L2624,1228L2016,1228L2016,1832L864,1832ZM1064,1652L1816,1652L1816,1048L2175,1048L1440,313L705,1048L1064,1048L1064,1652ZM864,2680L864,2072L2016,2072L2016,2680L864,2680ZM1064,2500L1816,2500L1816,2252L1064,2252L1064,2500Z" style="fill-rule:nonzero;"/>
    </g>
</svg>
