<?xml version="1.0" encoding="UTF-8" standalone="no"?>
<!DOCTYPE svg PUBLIC "-//W3C//DTD SVG 1.1//EN" "http://www.w3.org/Graphics/SVG/1.1/DTD/svg11.dtd">
<svg width="100%" height="100%" viewBox="0 0 2890 2816" version="1.1" xmlns="http://www.w3.org/2000/svg" xmlns:xlink="http://www.w3.org/1999/xlink" xml:space="preserve" xmlns:serif="http://www.serif.com/" style="fill-rule:evenodd;clip-rule:evenodd;stroke-linejoin:round;stroke-miterlimit:2;">
    <g transform="matrix(0.898799,-0.438361,0.438361,0.898799,-472.138,776.257)">
        <path d="M1445.28,309.423L2265.28,1933.01C2265.28,1933.01 1821,1933.01 1821,1933.01L1821,2512.5L1445.14,2512.5L1069.28,2512.5L1069.28,1933.01C1069.28,1933.01 625,1933.01 625,1933.01L1445,309.423L1445,308.864L1445.14,309.144L1445.28,308.864L1445.28,309.423ZM1445.28,711.184L1445.28,711.756L1445.14,711.47L1445,711.756L1445,711.184L1444.38,709.926L917.565,1753.01C917.565,1753.01 1249.28,1753.01 1249.28,1753.01L1249.28,2332.5L1445.14,2332.5L1641,2332.5L1641,1753.01C1641,1753.01 1972.72,1753.01 1972.72,1753.01L1445.9,709.926L1445.28,711.184Z"/>
    </g>
</svg>
