<?xml version="1.0" encoding="UTF-8" standalone="no"?>
<!DOCTYPE svg PUBLIC "-//W3C//DTD SVG 1.1//EN" "http://www.w3.org/Graphics/SVG/1.1/DTD/svg11.dtd">
<svg width="100%" height="100%" viewBox="0 0 2816 2816" version="1.1" xmlns="http://www.w3.org/2000/svg" xmlns:xlink="http://www.w3.org/1999/xlink" xml:space="preserve" xmlns:serif="http://www.serif.com/" style="fill-rule:evenodd;clip-rule:evenodd;stroke-linejoin:round;stroke-miterlimit:2;">
    <g transform="matrix(1,0,0,1,587,180)">
        <g transform="matrix(1,0,0,1,-683,-179.97)">
            <path d="M344,604L344,1296L877,1296L877,1516L344,1516L344,2432L96,2432L96,384L969,384L969,604L344,604Z"/>
        </g>
        <g transform="matrix(1,0,0,-1,1297,2252)">
            <path d="M932,2048L932,0L684,0L684,1788L672,1788L172,1456L172,1708L684,2048L932,2048Z" style="fill-rule:nonzero;"/>
        </g>
        <g transform="matrix(1,0,0,-1,343,2252)">
            <path d="M932,2048L932,0L684,0L684,1788L672,1788L172,1456L172,1708L684,2048L932,2048Z" style="fill-rule:nonzero;"/>
        </g>
    </g>
</svg>
