<?xml version="1.0" encoding="UTF-8" standalone="no"?>
<!DOCTYPE svg PUBLIC "-//W3C//DTD SVG 1.1//EN" "http://www.w3.org/Graphics/SVG/1.1/DTD/svg11.dtd">
<svg width="100%" height="100%" viewBox="0 0 2816 2816" version="1.1" xmlns="http://www.w3.org/2000/svg" xmlns:xlink="http://www.w3.org/1999/xlink" xml:space="preserve" xmlns:serif="http://www.serif.com/" style="fill-rule:evenodd;clip-rule:evenodd;stroke-linejoin:round;stroke-miterlimit:2;">
    <g transform="matrix(1,0,0,1,587,180)">
        <g transform="matrix(1,0,0,1,-683,-179.97)">
            <path d="M344,604L344,1296L877,1296L877,1516L344,1516L344,2432L96,2432L96,384L969,384L969,604L344,604Z"/>
        </g>
        <g transform="matrix(1,0,0,-1,78,2252)">
            <path d="M932,2048L932,0L684,0L684,1788L672,1788L172,1456L172,1708L684,2048L932,2048Z" style="fill-rule:nonzero;"/>
        </g>
        <g transform="matrix(1,0,0,-1,845,2252.03)">
            <path d="M342,0L342,180L888,920C1125,1179 1096,1319 1096,1508C1096,1724 1066,1860 844,1860C607,1860 586,1705 586,1472L350,1472C350,1832 493,2076 852,2076C1212,2076 1328,1824 1328,1508C1328,1281 1364,1105 1012,728L682,236L682,220L1374,220L1374,0L342,0Z" style="fill-rule:nonzero;"/>
        </g>
    </g>
</svg>
