<?xml version="1.0" encoding="UTF-8" standalone="no"?>
<!DOCTYPE svg PUBLIC "-//W3C//DTD SVG 1.1//EN" "http://www.w3.org/Graphics/SVG/1.1/DTD/svg11.dtd">
<svg width="100%" height="100%" viewBox="0 0 2816 2816" version="1.1" xmlns="http://www.w3.org/2000/svg" xmlns:xlink="http://www.w3.org/1999/xlink" xml:space="preserve" xmlns:serif="http://www.serif.com/" style="fill-rule:evenodd;clip-rule:evenodd;stroke-linejoin:round;stroke-miterlimit:2;">
    <g transform="matrix(1,0,0,1,587,180)">
        <g transform="matrix(1,0,0,1,-487,-179.97)">
            <path d="M344,604L344,1296L877,1296L877,1516L344,1516L344,2432L96,2432L96,384L969,384L969,604L344,604Z"/>
        </g>
        <g transform="matrix(1,0,0,-1,389,2237.97)">
            <path d="M164,420L164,624L1064,2048L1364,2048L1364,640L1644,640L1644,420L1364,420L1364,0L1128,0L1128,420L164,420ZM1128,640L1128,1732L1112,1732L432,656L432,640L1128,640Z" style="fill-rule:nonzero;"/>
        </g>
    </g>
</svg>
