<?xml version="1.0" encoding="UTF-8" standalone="no"?>
<!DOCTYPE svg PUBLIC "-//W3C//DTD SVG 1.1//EN" "http://www.w3.org/Graphics/SVG/1.1/DTD/svg11.dtd">
<svg width="100%" height="100%" viewBox="0 0 2816 2816" version="1.1" xmlns="http://www.w3.org/2000/svg" xmlns:xlink="http://www.w3.org/1999/xlink" xml:space="preserve" xmlns:serif="http://www.serif.com/" style="fill-rule:evenodd;clip-rule:evenodd;stroke-linejoin:round;stroke-miterlimit:2;">
    <g transform="matrix(1,0,0,1,587,180)">
        <g transform="matrix(1,0,0,1,-487,-179.97)">
            <path d="M344,604L344,1296L877,1296L877,1516L344,1516L344,2432L96,2432L96,384L969,384L969,604L344,604Z"/>
        </g>
        <g transform="matrix(1,0,0,-1,463,2237.97)">
            <path d="M852,-28C500,-28 231,200 216,512L456,512C475,327 642,192 852,192C1104,192 1288,385 1288,648C1288,916 1097,1114 836,1116C710,1117 565,1073 480,1012L248,1040L372,2048L1436,2048L1436,1828L580,1828L508,1224L520,1224C604,1291 738,1340 876,1340C1252,1340 1528,1049 1528,652C1528,260 1242,-28 852,-28Z" style="fill-rule:nonzero;"/>
        </g>
    </g>
</svg>
