<?xml version="1.0" encoding="UTF-8" standalone="no"?>
<!DOCTYPE svg PUBLIC "-//W3C//DTD SVG 1.1//EN" "http://www.w3.org/Graphics/SVG/1.1/DTD/svg11.dtd">
<svg width="100%" height="100%" viewBox="0 0 2816 2816" version="1.1" xmlns="http://www.w3.org/2000/svg" xmlns:xlink="http://www.w3.org/1999/xlink" xml:space="preserve" xmlns:serif="http://www.serif.com/" style="fill-rule:evenodd;clip-rule:evenodd;stroke-linejoin:round;stroke-miterlimit:2;">
    <g transform="matrix(1,0,0,1,587,180)">
        <g transform="matrix(1,0,0,1,-487,-179.97)">
            <path d="M344,604L344,1296L877,1296L877,1516L344,1516L344,2432L96,2432L96,384L969,384L969,604L344,604Z"/>
        </g>
        <g transform="matrix(1,0,0,-1,453.017,2251.94)">
            <path d="M892,-28C556,-24 180,187 180,944C180,1668 463,2076 924,2076C1268,2076 1510,1854 1560,1536L1316,1536C1270,1720 1140,1856 924,1856C607,1856 413,1567 412,1068L428,1068C540,1237 721,1340 932,1340C1283,1340 1576,1056 1576,660C1576,279 1306,-33 892,-28ZM892,192C1143,192 1336,400 1336,660C1336,914 1151,1120 900,1120C646,1120 449,901 448,656C447,411 635,192 892,192Z" style="fill-rule:nonzero;"/>
        </g>
    </g>
</svg>
