<?xml version="1.0" encoding="UTF-8" standalone="no"?>
<!DOCTYPE svg PUBLIC "-//W3C//DTD SVG 1.1//EN" "http://www.w3.org/Graphics/SVG/1.1/DTD/svg11.dtd">
<svg width="100%" height="100%" viewBox="0 0 2816 2816" version="1.1" xmlns="http://www.w3.org/2000/svg" xmlns:xlink="http://www.w3.org/1999/xlink" xml:space="preserve" xmlns:serif="http://www.serif.com/" style="fill-rule:evenodd;clip-rule:evenodd;stroke-linejoin:round;stroke-miterlimit:2;">
    <g transform="matrix(1,0,0,1,587,180)">
        <g transform="matrix(1,0,0,1,-487,-179.97)">
            <path d="M344,604L344,1296L877,1296L877,1516L344,1516L344,2432L96,2432L96,384L969,384L969,604L344,604Z"/>
        </g>
        <g transform="matrix(1,0,0,-1,465.017,2252)">
            <path d="M868,-28C455,-28 170,211 172,544C170,803 343,1023 568,1064L568,1076C372,1126 246,1314 248,1532C246,1844 508,2076 868,2076C1224,2076 1486,1844 1488,1532C1486,1314 1360,1126 1168,1076L1168,1064C1389,1023 1562,803 1564,544C1562,211 1277,-28 868,-28ZM868,192C1145,192 1318,336 1320,556C1318,787 1127,952 868,952C605,952 414,787 416,556C414,336 587,192 868,192ZM868,1164C1088,1164 1246,1304 1248,1516C1246,1724 1094,1860 868,1860C638,1860 486,1724 488,1516C486,1304 644,1164 868,1164Z" style="fill-rule:nonzero;"/>
        </g>
    </g>
</svg>
