<?xml version="1.0" encoding="UTF-8" standalone="no"?>
<!DOCTYPE svg PUBLIC "-//W3C//DTD SVG 1.1//EN" "http://www.w3.org/Graphics/SVG/1.1/DTD/svg11.dtd">
<svg width="100%" height="100%" viewBox="0 0 714 2816" version="1.1" xmlns="http://www.w3.org/2000/svg" xmlns:xlink="http://www.w3.org/1999/xlink" xml:space="preserve" xmlns:serif="http://www.serif.com/" style="fill-rule:evenodd;clip-rule:evenodd;stroke-linejoin:round;stroke-miterlimit:2;">
    <g transform="matrix(1,0,0,1,46,0)">
        <path d="M216,716L452,716L452,2364C452,2648 308,2828 12,2828L-36,2828L-36,2608L8,2608C152,2608 216,2520 216,2364L216,716ZM332,460C240,460 164,388 164,300C164,212 240,140 332,140C424,140 500,212 500,300C500,388 424,460 332,460Z" style="fill-rule:nonzero;"/>
    </g>
</svg>
