<?xml version="1.0" encoding="UTF-8" standalone="no"?>
<!DOCTYPE svg PUBLIC "-//W3C//DTD SVG 1.1//EN" "http://www.w3.org/Graphics/SVG/1.1/DTD/svg11.dtd">
<svg width="100%" height="100%" viewBox="0 0 2458 2816" version="1.1" xmlns="http://www.w3.org/2000/svg" xmlns:xlink="http://www.w3.org/1999/xlink" xml:space="preserve" xmlns:serif="http://www.serif.com/" style="fill-rule:evenodd;clip-rule:evenodd;stroke-linejoin:round;stroke-miterlimit:2;">
    <g transform="matrix(1,0,0,1,10,0)">
        <path d="M216,2252L216,716L444,716L444,956L464,956C528,792 676,696 876,696C1078,696 1212,792 1288,956L1304,956C1383,797 1544,696 1764,696C2038,696 2232,863 2232,1224L2232,2252L1996,2252L1996,1224C1996,997 1852,908 1684,908C1468,908 1344,1054 1344,1252L1344,2252L1104,2252L1104,1200C1104,1025 979,908 800,908C616,908 452,1067 452,1292L452,2252L216,2252Z" style="fill-rule:nonzero;"/>
    </g>
</svg>
