<?xml version="1.0" encoding="UTF-8" standalone="no"?>
<!DOCTYPE svg PUBLIC "-//W3C//DTD SVG 1.1//EN" "http://www.w3.org/Graphics/SVG/1.1/DTD/svg11.dtd">
<svg width="100%" height="100%" viewBox="0 0 1690 2816" version="1.1" xmlns="http://www.w3.org/2000/svg" xmlns:xlink="http://www.w3.org/1999/xlink" xml:space="preserve" xmlns:serif="http://www.serif.com/" style="fill-rule:evenodd;clip-rule:evenodd;stroke-linejoin:round;stroke-miterlimit:2;">
    <g transform="matrix(1,0,0,1,10,0)">
        <path d="M840,2284C424,2284 144,1968 144,1492C144,1012 424,696 840,696C1256,696 1536,1012 1536,1492C1536,1968 1256,2284 840,2284ZM840,2072C1156,2072 1300,1800 1300,1492C1300,1184 1156,908 840,908C524,908 380,1184 380,1492C380,1800 524,2072 840,2072Z" style="fill-rule:nonzero;"/>
    </g>
</svg>
