<?xml version="1.0" standalone="no"?>
<!DOCTYPE svg PUBLIC "-//W3C//DTD SVG 1.1//EN" "http://www.w3.org/Graphics/SVG/1.1/DTD/svg11.dtd" >
<svg xmlns="http://www.w3.org/2000/svg" xmlns:xlink="http://www.w3.org/1999/xlink" version="1.1" viewBox="-10 0 1818 2816">
  <g transform="matrix(1 0 0 -1 0 2252)">
   <path fill="currentColor"
d="M904 -28c-397 0 -681 218 -696 540h252c15 -198 203 -320 440 -320c263 0 452 147 452 364c0 226 -173 384 -484 384h-164v220h164c243 0 412 140 412 356c0 207 -146 344 -372 344c-213 0 -407 -120 -416 -324h-240c12 322 306 540 660 540c379 0 608 -258 608 -548
c0 -231 -129 -401 -336 -464v-16c258 -43 412 -232 412 -492c0 -335 -295 -584 -692 -584z" />
  </g>

</svg>
