<?xml version="1.0" standalone="no"?>
<!DOCTYPE svg PUBLIC "-//W3C//DTD SVG 1.1//EN" "http://www.w3.org/Graphics/SVG/1.1/DTD/svg11.dtd" >
<svg xmlns="http://www.w3.org/2000/svg" xmlns:xlink="http://www.w3.org/1999/xlink" version="1.1" viewBox="-10 0 1818 2816">
  <g transform="matrix(1 0 0 -1 0 2252)">
   <path fill="currentColor"
d="M868 -28c-413 0 -698 239 -696 572c-2 259 171 479 396 520v12c-196 50 -322 238 -320 456c-2 312 260 544 620 544c356 0 618 -232 620 -544c-2 -218 -128 -406 -320 -456v-12c221 -41 394 -261 396 -520c-2 -333 -287 -572 -696 -572zM868 192c277 0 450 144 452 364
c-2 231 -193 396 -452 396c-263 0 -454 -165 -452 -396c-2 -220 171 -364 452 -364zM868 1164c220 0 378 140 380 352c-2 208 -154 344 -380 344c-230 0 -382 -136 -380 -344c-2 -212 156 -352 380 -352z" />
  </g>

</svg>
