<?xml version="1.0" standalone="no"?>
<!DOCTYPE svg PUBLIC "-//W3C//DTD SVG 1.1//EN" "http://www.w3.org/Graphics/SVG/1.1/DTD/svg11.dtd" >
<svg xmlns="http://www.w3.org/2000/svg" xmlns:xlink="http://www.w3.org/1999/xlink" version="1.1" viewBox="-10 0 1243 2048">
  <g transform="matrix(1 0 0 -1 0 1556)">
   <path fill="currentColor"
d="M616 -45l-544 557l72 74l472 -484l472 484l72 -74zM672 755h-35q-91 0 -137.5 -31.5t-46.5 -94.5q0 -56 34.5 -87.5t96.5 -31.5q86 0 135.5 59t49.5 163v23h-97zM874 798v-358h-105v93q-33 -56 -84 -82.5t-123 -26.5q-97 0 -155 54t-58 145q0 104 71 158.5t209 54.5h140
v16q0 75 -38 109t-122 34q-53 0 -107.5 -15t-106.5 -44v103q58 21 111 32t103 11q79 0 135 -23q53 -22 90 -69q22 -28 31 -69t9 -123z" />
  </g>

</svg>
